# xmcd CD database file
#
# Track frame offsets:
#	150
#	16690
#	31770
#	42857
#	56307
#	65357
#	79845
#	90715
#	103017
#	113890
#
# Disc length: 1700 seconds
#
# Revision: 2
# Processed by: cddbd v1.5.2PL0 Copyright (c) Steve Scherf et al.
# Submitted via: CDex 1.50beta10
#
DISCID=6e06a20a
DTITLE=George Jones - Friends In High Places
DYEAR=1991
DGENRE=Country
TTITLE0=A Few Ole Country Boys (with Randy Travis)
TTITLE1=All Fall Down (with Emmylou Harris)
TTITLE2=Fiddle And Guitar Band (with Charlie Daniels)
TTITLE3=All That We've Got Left (with Vern Gosdin)
TTITLE4=Love's Gonna Live Here (with Buck Owens)
TTITLE5=If I Could Bottle This Up (with Shelby Lynne)
TTITLE6=I've Been There (with Tim Mensy)
TTITLE7=You Can't Do Wrong And Get By (with Ricky Skaggs)
TTITLE8=It Hurts As Much In Texas (As It Did In Tennessee) (with Rickey Van Shelton)
TTITLE9=Traveller's Prayer (with Sweethearts of the Rodeo)
EXTD=(c)1991 Sony Music Entertainment - EPIC\nupc 07464450142\nProduced by Billy Sherrill\n(1) Produced by Kyle Lehning YEAR: 1991
EXTT0=With Randy Travis
EXTT1=With Emmylou Harris
EXTT2=With Charlie Daniels
EXTT3=With Vern Gosdin
EXTT4=With Buck Owens
EXTT5=With Shelby Lynne
EXTT6=With Tim Mensy
EXTT7=With Ricky Skaggs
EXTT8=With Ricky Van Shelton
EXTT9=With Sweethearts Of The Rodeo
PLAYORDER=
